<svg width="50" height="51" viewBox="0 0 50 51" fill="none" xmlns="http://www.w3.org/2000/svg">
<path d="M22.6374 16.2626L34.1556 26.242C36.6261 28.3825 36.8965 32.1229 34.7595 34.5964L24.7963 46.1286C22.6593 48.6021 18.9241 48.8721 16.4536 46.7317L4.93533 36.7523C2.46479 34.6118 2.19442 30.8714 4.33143 28.3979L14.2947 16.8657C16.4317 14.3922 20.1668 14.1222 22.6374 16.2626Z" fill="url(#paint0_linear_244_7192)" fill-opacity="0.1"/>
<g clip-path="url(#clip0_244_7192)">
<path d="M18.8094 32.6733C18.051 32.6733 17.3647 32.9854 16.8701 33.4893C16.3756 33.9885 16.0732 34.6846 16.0732 35.443C16.0732 36.2014 16.3756 36.8975 16.8701 37.3967C17.3596 37.8959 18.051 38.2126 18.8094 38.2126C19.5678 38.2126 20.2541 37.9006 20.7487 37.3967C21.2432 36.8974 21.5456 36.2014 21.5456 35.443C21.5456 34.6846 21.2432 33.9885 20.7487 33.4893C20.2542 32.9854 19.5678 32.6733 18.8094 32.6733ZM19.7215 36.3838C19.4814 36.6239 19.1647 36.7679 18.8094 36.7679C18.4541 36.7679 18.1374 36.6239 17.8973 36.3838C17.6623 36.1438 17.5133 35.8126 17.5133 35.4429C17.5133 35.0686 17.6619 34.7422 17.8973 34.5021C18.1374 34.262 18.4541 34.118 18.8094 34.118C19.1647 34.118 19.4814 34.262 19.7215 34.5021C19.9565 34.7421 20.1055 35.0733 20.1055 35.4429C20.1052 35.8126 19.9565 36.139 19.7215 36.3838Z" fill="#E2E2E2"/>
<path d="M46.3281 15.5278C46.5297 14.8079 46.6402 14.0496 46.6402 13.2671C46.6402 10.9535 45.7137 8.84647 44.2161 7.3247C42.7184 5.80293 40.6402 4.8527 38.3457 4.85741C37.3807 4.85741 36.4547 5.03018 35.5951 5.33755C33.8286 2.68307 30.8336 0.92627 27.4255 0.92627C24.8193 0.92627 22.443 1.95818 20.6862 3.62858C19.1789 5.06361 18.1232 6.97409 17.7341 9.12466C17.3454 9.06707 16.9517 9.03359 16.5438 9.03359C14.2637 9.03359 12.1901 9.97448 10.7022 11.4912C9.21928 12.9982 8.29785 15.0959 8.29785 17.3998C8.29785 20.3181 9.77608 22.8959 12.0177 24.3936C12.013 24.5041 12.0033 24.6142 12.0033 24.7297C12.0033 26.5489 12.5457 28.2721 13.592 29.5826C14.1153 30.2355 14.7729 30.7826 15.536 31.162C16.3041 31.5413 17.1776 31.7523 18.1185 31.7523C18.4737 31.7523 18.8193 31.6994 19.1601 31.6324C19.5632 31.546 19.9519 31.4355 20.2834 31.3301C20.4371 31.6083 20.6386 31.9348 20.8881 32.271C21.2336 32.7317 21.6799 33.2118 22.2561 33.6196C22.8274 34.0227 23.5425 34.3445 24.3682 34.45C24.7282 34.4931 25.0787 34.5173 25.4145 34.5173C27.3297 34.5173 28.8371 33.8453 29.8449 33.183C30.2531 32.9142 30.5842 32.6503 30.8337 32.42C31.0305 32.5305 31.2609 32.6456 31.5298 32.7655C32.3936 33.1495 33.6177 33.5336 35.0769 33.5336C35.4177 33.5336 35.773 33.5145 36.1329 33.4663C37.8944 33.2359 39.6897 32.4725 41.101 31.2056C41.8064 30.5721 42.4114 29.804 42.8434 28.9161C43.1313 28.3258 43.3329 27.6776 43.448 26.9865C43.5488 26.9911 43.6449 27.0055 43.7457 27.0055C45.392 27.0055 46.8897 26.3238 47.9648 25.2296C49.0399 24.1401 49.7025 22.628 49.7025 20.9673C49.7025 18.571 48.3297 16.5021 46.3282 15.5278L46.3281 15.5278ZM46.597 23.8799C45.8627 24.6239 44.8593 25.0799 43.7507 25.0799C43.4386 25.0799 43.1316 25.0414 42.8242 24.9647L41.6577 24.6865L41.6386 25.8865C41.6242 26.7024 41.4417 27.4226 41.125 28.0705C40.6546 29.0354 39.8771 29.8417 38.9456 30.4417C38.0145 31.0417 36.925 31.4257 35.8927 31.56C35.6145 31.5985 35.3456 31.6129 35.0815 31.6129C33.9631 31.6129 32.9935 31.3152 32.3119 31.0082C31.971 30.8595 31.7022 30.7058 31.52 30.5954C31.4289 30.5425 31.3663 30.4946 31.3231 30.4658L31.2799 30.437L31.2753 30.4323L30.536 29.8708L29.9551 30.5907C29.9407 30.6051 29.5037 31.1234 28.7215 31.6179C27.9391 32.1124 26.8305 32.5875 25.4192 32.5875C25.1601 32.5875 24.8912 32.5731 24.613 32.5346C24.1379 32.477 23.7348 32.2945 23.3698 32.04C22.8227 31.6607 22.3811 31.0895 22.0978 30.6096C21.9538 30.3696 21.8483 30.1583 21.781 30.0096C21.7476 29.9376 21.7234 29.8801 21.7091 29.8416L21.6947 29.8031V29.7984L21.3585 28.8673L20.4367 29.2369L20.4223 29.2416C20.3456 29.2704 19.9472 29.4241 19.4718 29.568C19.2317 29.64 18.9772 29.7073 18.7375 29.7505C18.4974 29.7984 18.2768 29.8225 18.1328 29.8225C17.4705 29.8225 16.904 29.6785 16.4001 29.4338C15.6514 29.0641 15.0417 28.44 14.6098 27.6241C14.1778 26.8081 13.9331 25.8 13.9331 24.7249C13.9331 24.4992 13.9522 24.2642 13.9907 24.0194L14.0818 23.3715L13.5106 23.0498C11.5569 21.9506 10.2273 19.8385 10.2273 17.3953C10.2273 15.605 10.9378 13.9969 12.0896 12.8257C13.2417 11.6592 14.8161 10.944 16.5631 10.9393C17.1631 10.9393 17.744 11.0304 18.3008 11.1938L19.4432 11.5249L19.5249 10.3393C19.6735 8.23699 20.605 6.35993 22.0257 5.00659C23.4463 3.65291 25.3424 2.83228 27.4401 2.83228C30.421 2.83228 33.0175 4.50268 34.381 6.98908L34.8179 7.79064L35.6386 7.39221C36.4689 6.98908 37.3857 6.76342 38.3603 6.76342C40.1171 6.76342 41.7058 7.48328 42.8626 8.6595C44.0194 9.83541 44.7346 11.4533 44.7346 13.2579C44.7346 14.1314 44.5619 14.9618 44.2545 15.7202L43.8561 16.7042L44.8736 17.0019C46.5487 17.4914 47.7969 19.0708 47.7919 20.9571C47.7825 22.1086 47.3312 23.1358 46.597 23.8798L46.597 23.8799Z" fill="#E2E2E2"/>
<path d="M16.5013 39.009C16.5013 39.6188 16.0135 40.113 15.4118 40.113C14.8098 40.113 14.3223 39.6188 14.3223 39.009C14.3223 38.3993 14.8098 37.9048 15.4118 37.9048C16.0135 37.9048 16.5013 38.3993 16.5013 39.009Z" fill="#E2E2E2"/>
</g>
<defs>
<linearGradient id="paint0_linear_244_7192" x1="18.0502" y1="10.7807" x2="20.4595" y2="43.5986" gradientUnits="userSpaceOnUse">
<stop stop-color="#EDD600"/>
<stop offset="0.34375" stop-color="#FFE703"/>
<stop offset="0.557292" stop-color="#FFBB97"/>
<stop offset="0.760417" stop-color="#DE77B5"/>
<stop offset="1" stop-color="#DD1C90"/>
</linearGradient>
<clipPath id="clip0_244_7192">
<rect width="42" height="41" fill="white" transform="translate(8)"/>
</clipPath>
</defs>
</svg>
