<svg width="56" height="56" viewBox="0 0 56 56" fill="none" xmlns="http://www.w3.org/2000/svg">
<g clip-path="url(#clip0_244_7187)">
<path d="M30.7981 37.3899C31.6672 38.2984 33.1883 39.8985 35.5387 42.3481C37.9485 38.8915 38.2449 33.9926 38.1856 31.1091L30.7981 37.3899ZM35.6176 45.5872C35.2621 45.5872 34.9262 45.4489 34.6891 45.1922C29.8496 40.1156 27.9926 38.1996 27.9926 38.1797C27.7555 37.9231 27.6172 37.5872 27.6371 37.2317C27.657 36.8762 27.8148 36.5403 28.0914 36.3231L48.2594 19.2171C48.536 18.98 54.7383 13.6663 52.6051 3.35508C42.2941 1.22188 36.9411 7.38479 36.7231 7.66129L19.6371 27.8493C19.4 28.1258 19.084 28.2837 18.7285 28.3036C18.373 28.3235 18.0371 28.1852 17.7805 27.9481C17.7605 27.9282 15.8051 26.0516 10.768 21.2516C10.5113 21.0145 10.373 20.659 10.373 20.3231C10.373 19.9872 10.5312 19.6317 10.7879 19.3946C15.9039 14.654 24.5359 15.0688 26.9259 15.3055L34.7876 6.04138C35.0442 5.72536 41.6024 -1.93873 54.0076 1.06367C54.4818 1.18203 54.8373 1.53789 54.9556 2.01172C57.9579 14.4367 50.274 20.9347 49.9384 21.2117L40.6939 29.0535C40.9111 31.4437 41.3459 40.0755 36.6048 45.1915C36.3283 45.4294 35.9923 45.5677 35.6169 45.5872C35.6369 45.5872 35.6169 45.5872 35.6169 45.5872L35.6176 45.5872ZM13.5926 20.4021C16.0418 22.733 17.6418 24.2736 18.5508 25.1427L24.8125 17.7353C21.948 17.6764 17.0492 17.9924 13.5925 20.4021H13.5926ZM44.9016 15.3654C42.4918 15.3654 40.536 13.4099 40.536 10.9998C40.536 8.59005 42.4915 6.63425 44.9016 6.63425C47.3114 6.63425 49.2672 8.58975 49.2672 10.9998C49.2672 13.4096 47.3113 15.3654 44.9016 15.3654V15.3654ZM44.9016 9.20215C43.9141 9.20215 43.1039 10.0119 43.1039 10.9998C43.1039 11.9873 43.9137 12.7975 44.9016 12.7975C45.8891 12.7975 46.6993 11.9878 46.6993 10.9998C46.6993 10.0123 45.8895 9.20215 44.9016 9.20215ZM12.0526 44.4222C11.7167 44.4222 11.3811 44.2839 11.1241 44.0272C10.7487 43.6518 10.6698 43.0792 10.887 42.6049L16.339 30.8319C16.5167 30.4565 16.8722 30.18 17.287 30.1011C17.7019 30.0222 18.1167 30.1604 18.4128 30.4565L25.1288 37.1725C25.4253 37.469 25.5632 37.9034 25.4843 38.3381C25.4054 38.753 25.1089 39.1085 24.714 39.2667L12.546 44.3233C12.3686 44.3822 12.2104 44.4217 12.0526 44.4217L12.0526 44.4222ZM17.8796 33.5772L14.5808 40.6881L21.9288 37.6264L17.8796 33.5772Z" fill="#E2E2E2"/>
</g>
<path d="M5.96443 55.1428L21.2044 55.0955C24.4732 55.0854 27.1185 52.4272 27.113 49.1584L27.087 33.9185C27.0815 30.6496 24.427 28.008 21.1582 28.0181L5.91832 28.0654C2.64951 28.0755 0.00413687 30.7337 0.00970321 34.0025L0.0356548 49.2425C0.0412211 52.5113 2.69562 55.153 5.96443 55.1428Z" fill="url(#paint0_linear_244_7187)" fill-opacity="0.1"/>
<defs>
<linearGradient id="paint0_linear_244_7187" x1="-1.08857" y1="56.3042" x2="22.1497" y2="33.0061" gradientUnits="userSpaceOnUse">
<stop stop-color="#EDD600"/>
<stop offset="0.34375" stop-color="#FFE703"/>
<stop offset="0.557292" stop-color="#FFBB97"/>
<stop offset="0.760417" stop-color="#DE77B5"/>
<stop offset="1" stop-color="#DD1C90"/>
</linearGradient>
<clipPath id="clip0_244_7187">
<rect width="46" height="46" fill="white" transform="translate(10)"/>
</clipPath>
</defs>
</svg>
